
<global>
ampeg_release=0.45
</global>

<group>
group_label=RR1
seq_length=2
seq_position=1

<region>
hivel=127
key=a#2
lovel=85
sample=Horn_muted_staccato_FF_A#2_RR1.opus
</region>

<region>
hikey=a2
hivel=127
lokey=g#2
lovel=85
pitch_keycenter=A2
sample=Horn_muted_staccato_FF_A2_RR1.opus
</region>

<region>
hikey=a3
hivel=127
lokey=g#3
lovel=85
pitch_keycenter=a3
sample=Horn_muted_staccato_FF_A3_RR1.opus
</region>

<region>
hikey=a4
hivel=127
lokey=g#4
lovel=85
pitch_keycenter=a4
sample=Horn_muted_staccato_FF_A4_RR1.opus
</region>

<region>
hikey=b3
hivel=127
lokey=a#3
lovel=85
pitch_keycenter=B3
sample=Horn_muted_staccato_FF_B3_RR1.opus
</region>

<region>
hikey=b4
hivel=127
lokey=a#4
lovel=85
pitch_keycenter=B4
sample=Horn_muted_staccato_FF_B4_RR1.opus
</region>

<region>
hikey=c3
hivel=127
lokey=b2
lovel=85
pitch_keycenter=c3
sample=Horn_muted_staccato_FF_C3_RR1.opus
</region>

<region>
hivel=127
key=c4
lovel=85
sample=Horn_muted_staccato_FF_C4_RR1.opus
</region>

<region>
hivel=127
key=c5
lovel=85
sample=Horn_muted_staccato_FF_C5_RR1.opus
</region>

<region>
hikey=d3
hivel=127
lokey=c#3
lovel=85
pitch_keycenter=d3
sample=Horn_muted_staccato_FF_D3_RR1.opus
</region>

<region>
hikey=d4
hivel=127
lokey=c#4
lovel=85
pitch_keycenter=d4
sample=Horn_muted_staccato_FF_D4_RR1.opus
</region>

<region>
hikey=d5
hivel=127
lokey=c#5
lovel=85
pitch_keycenter=d5
sample=Horn_muted_staccato_FF_D5_RR1.opus
</region>

<region>
hikey=e3
hivel=127
lokey=d#3
lovel=85
pitch_keycenter=e3
sample=Horn_muted_staccato_FF_E3_RR1.opus
</region>

<region>
hikey=e4
hivel=127
lokey=d#4
lovel=85
pitch_keycenter=e4
sample=Horn_muted_staccato_FF_E4_RR1.opus
</region>

<region>
hikey=A#5
hivel=127
lokey=d#5
lovel=85
pitch_keycenter=E5
sample=Horn_muted_staccato_FF_E5_RR1.opus
</region>

<region>
hivel=127
key=F#2
lovel=85
sample=Horn_muted_staccato_FF_F#2_RR1.opus
</region>

<region>
hikey=f#3
hivel=127
lokey=f3
lovel=85
pitch_keycenter=F#3
sample=Horn_muted_staccato_FF_F#3_RR1.opus
</region>

<region>
hikey=f#4
hivel=127
lokey=f4
lovel=85
pitch_keycenter=F#4
sample=Horn_muted_staccato_FF_F#4_RR1.opus
</region>

<region>
hikey=F2
hivel=127
lokey=F1
lovel=85
pitch_keycenter=F2
sample=Horn_muted_staccato_FF_F2_RR1.opus
</region>

<region>
hivel=127
key=g2
lovel=85
sample=Horn_muted_staccato_FF_G2_RR1.opus
</region>

<region>
hivel=127
key=g3
lovel=85
sample=Horn_muted_staccato_FF_G3_RR1.opus
</region>

<region>
hivel=127
key=g4
lovel=85
sample=Horn_muted_staccato_FF_G4_RR1.opus
</region>

<region>
hivel=84
key=a#2
lovel=43
sample=Horn_muted_staccato_MF_A#2_RR1.opus
</region>

<region>
hikey=a2
hivel=84
lokey=g#2
lovel=43
pitch_keycenter=A2
sample=Horn_muted_staccato_MF_A2_RR1.opus
</region>

<region>
hikey=a3
hivel=84
lokey=g#3
lovel=43
pitch_keycenter=a3
sample=Horn_muted_staccato_MF_A3_RR1.opus
</region>

<region>
hikey=a4
hivel=84
lokey=g#4
lovel=43
pitch_keycenter=a4
sample=Horn_muted_staccato_MF_A4_RR1.opus
</region>

<region>
hikey=b3
hivel=84
lokey=a#3
lovel=43
pitch_keycenter=B3
sample=Horn_muted_staccato_MF_B3_RR1.opus
</region>

<region>
hikey=b4
hivel=84
lokey=a#4
lovel=43
pitch_keycenter=B4
sample=Horn_muted_staccato_MF_B4_RR1.opus
</region>

<region>
hikey=c3
hivel=84
lokey=b2
lovel=43
pitch_keycenter=c3
sample=Horn_muted_staccato_MF_C3_RR1.opus
</region>

<region>
hivel=84
key=c4
lovel=43
sample=Horn_muted_staccato_MF_C4_RR1.opus
</region>

<region>
hivel=84
key=c5
lovel=43
sample=Horn_muted_staccato_MF_C5_RR1.opus
</region>

<region>
hikey=d3
hivel=84
lokey=c#3
lovel=43
pitch_keycenter=d3
sample=Horn_muted_staccato_MF_D3_RR1.opus
</region>

<region>
hikey=d4
hivel=84
lokey=c#4
lovel=43
pitch_keycenter=d4
sample=Horn_muted_staccato_MF_D4_RR1.opus
</region>

<region>
hikey=d5
hivel=84
lokey=c#5
lovel=43
pitch_keycenter=d5
sample=Horn_muted_staccato_MF_D5_RR1.opus
</region>

<region>
hikey=e3
hivel=84
lokey=d#3
lovel=43
pitch_keycenter=e3
sample=Horn_muted_staccato_MF_E3_RR1.opus
</region>

<region>
hikey=e4
hivel=84
lokey=d#4
lovel=43
pitch_keycenter=e4
sample=Horn_muted_staccato_MF_E4_RR1.opus
</region>

<region>
hikey=A#5
hivel=84
lokey=d#5
lovel=43
pitch_keycenter=E5
sample=Horn_muted_staccato_MF_E5_RR1.opus
</region>

<region>
hivel=84
key=F#2
lovel=43
sample=Horn_muted_staccato_MF_F#2_RR1.opus
</region>

<region>
hikey=f#3
hivel=84
lokey=f3
lovel=43
pitch_keycenter=F#3
sample=Horn_muted_staccato_MF_F#3_RR1.opus
</region>

<region>
hikey=f#4
hivel=84
lokey=f4
lovel=43
pitch_keycenter=F#4
sample=Horn_muted_staccato_MF_F#4_RR1.opus
</region>

<region>
hikey=F2
hivel=84
lokey=F1
lovel=43
pitch_keycenter=F2
sample=Horn_muted_staccato_MF_F2_RR1.opus
</region>

<region>
hivel=84
key=g2
lovel=43
sample=Horn_muted_staccato_MF_G2_RR1.opus
</region>

<region>
hivel=84
key=g3
lovel=43
sample=Horn_muted_staccato_MF_G3_RR1.opus
</region>

<region>
hivel=84
key=g4
lovel=43
sample=Horn_muted_staccato_MF_G4_RR1.opus
</region>

<region>
hivel=42
key=a#2
lovel=0
sample=Horn_muted_staccato_PP_A#2_RR1.opus
</region>

<region>
hikey=a2
hivel=42
lokey=g#2
lovel=0
pitch_keycenter=A2
sample=Horn_muted_staccato_PP_A2_RR1.opus
</region>

<region>
hikey=a3
hivel=42
lokey=g#3
lovel=0
pitch_keycenter=a3
sample=Horn_muted_staccato_PP_A3_RR1.opus
</region>

<region>
hikey=a4
hivel=42
lokey=g#4
lovel=0
pitch_keycenter=a4
sample=Horn_muted_staccato_PP_A4_RR1.opus
</region>

<region>
hikey=b3
hivel=42
lokey=a#3
lovel=0
pitch_keycenter=B3
sample=Horn_muted_staccato_PP_B3_RR1.opus
</region>

<region>
hikey=b4
hivel=42
lokey=a#4
lovel=0
pitch_keycenter=B4
sample=Horn_muted_staccato_PP_B4_RR1.opus
</region>

<region>
hikey=c3
hivel=42
lokey=b2
lovel=0
pitch_keycenter=c3
sample=Horn_muted_staccato_PP_C3_RR1.opus
</region>

<region>
hivel=42
key=c4
lovel=0
sample=Horn_muted_staccato_PP_C4_RR1.opus
</region>

<region>
hivel=42
key=c5
lovel=0
sample=Horn_muted_staccato_PP_C5_RR1.opus
</region>

<region>
hikey=d3
hivel=42
lokey=c#3
lovel=0
pitch_keycenter=d3
sample=Horn_muted_staccato_PP_D3_RR1.opus
</region>

<region>
hikey=d4
hivel=42
lokey=c#4
lovel=0
pitch_keycenter=d4
sample=Horn_muted_staccato_PP_D4_RR1.opus
</region>

<region>
hikey=d5
hivel=42
lokey=c#5
lovel=0
pitch_keycenter=d5
sample=Horn_muted_staccato_PP_D5_RR1.opus
</region>

<region>
hikey=e3
hivel=42
lokey=d#3
lovel=0
pitch_keycenter=e3
sample=Horn_muted_staccato_PP_E3_RR1.opus
</region>

<region>
hikey=e4
hivel=42
lokey=d#4
lovel=0
pitch_keycenter=e4
sample=Horn_muted_staccato_PP_E4_RR1.opus
</region>

<region>
hikey=A#5
hivel=42
lokey=d#5
lovel=0
pitch_keycenter=E5
sample=Horn_muted_staccato_PP_E5_RR1.opus
</region>

<region>
hivel=42
key=F#2
lovel=0
sample=Horn_muted_staccato_PP_F#2_RR1.opus
</region>

<region>
hikey=f#3
hivel=42
lokey=f3
lovel=0
pitch_keycenter=F#3
sample=Horn_muted_staccato_PP_F#3_RR1.opus
</region>

<region>
hikey=f#4
hivel=42
lokey=f4
lovel=0
pitch_keycenter=F#4
sample=Horn_muted_staccato_PP_F#4_RR1.opus
</region>

<region>
hikey=F2
hivel=42
lokey=F1
lovel=0
pitch_keycenter=F2
sample=Horn_muted_staccato_PP_F2_RR1.opus
</region>

<region>
hivel=42
key=g2
lovel=0
sample=Horn_muted_staccato_PP_G2_RR1.opus
</region>

<region>
hivel=42
key=g3
lovel=0
sample=Horn_muted_staccato_PP_G3_RR1.opus
</region>

<region>
hivel=42
key=g4
lovel=0
sample=Horn_muted_staccato_PP_G4_RR1.opus
</region>
</group>

<group>
group_label=RR2
seq_length=2
seq_position=2

<region>
hivel=127
key=a#2
lovel=85
sample=Horn_muted_staccato_FF_A#2_RR2.opus
</region>

<region>
hikey=a2
hivel=127
lokey=g#2
lovel=85
pitch_keycenter=A2
sample=Horn_muted_staccato_FF_A2_RR2.opus
</region>

<region>
hikey=a3
hivel=127
lokey=g#3
lovel=85
pitch_keycenter=a3
sample=Horn_muted_staccato_FF_A3_RR2.opus
</region>

<region>
hikey=a4
hivel=127
lokey=g#4
lovel=85
pitch_keycenter=a4
sample=Horn_muted_staccato_FF_A4_RR2.opus
</region>

<region>
hikey=b3
hivel=127
lokey=a#3
lovel=85
pitch_keycenter=B3
sample=Horn_muted_staccato_FF_B3_RR2.opus
</region>

<region>
hikey=b4
hivel=127
lokey=a#4
lovel=85
pitch_keycenter=B4
sample=Horn_muted_staccato_FF_B4_RR2.opus
</region>

<region>
hikey=c3
hivel=127
lokey=b2
lovel=85
pitch_keycenter=c3
sample=Horn_muted_staccato_FF_C3_RR2.opus
</region>

<region>
hivel=127
key=c4
lovel=85
sample=Horn_muted_staccato_FF_C4_RR2.opus
</region>

<region>
hivel=127
key=c5
lovel=85
sample=Horn_muted_staccato_FF_C5_RR2.opus
</region>

<region>
hikey=d3
hivel=127
lokey=c#3
lovel=85
pitch_keycenter=d3
sample=Horn_muted_staccato_FF_D3_RR2.opus
</region>

<region>
hikey=d4
hivel=127
lokey=c#4
lovel=85
pitch_keycenter=d4
sample=Horn_muted_staccato_FF_D4_RR2.opus
</region>

<region>
hikey=d5
hivel=127
lokey=c#5
lovel=85
pitch_keycenter=d5
sample=Horn_muted_staccato_FF_D5_RR2.opus
</region>

<region>
hikey=e3
hivel=127
lokey=d#3
lovel=85
pitch_keycenter=e3
sample=Horn_muted_staccato_FF_E3_RR2.opus
</region>

<region>
hikey=e4
hivel=127
lokey=d#4
lovel=85
pitch_keycenter=e4
sample=Horn_muted_staccato_FF_E4_RR2.opus
</region>

<region>
hikey=A#5
hivel=127
lokey=d#5
lovel=85
pitch_keycenter=E5
sample=Horn_muted_staccato_FF_E5_RR2.opus
</region>

<region>
hivel=127
key=F#2
lovel=85
sample=Horn_muted_staccato_FF_F#2_RR2.opus
</region>

<region>
hikey=f#3
hivel=127
lokey=f3
lovel=85
pitch_keycenter=F#3
sample=Horn_muted_staccato_FF_F#3_RR2.opus
</region>

<region>
hikey=f#4
hivel=127
lokey=f4
lovel=85
pitch_keycenter=F#4
sample=Horn_muted_staccato_FF_F#4_RR2.opus
</region>

<region>
hikey=F2
hivel=127
lokey=F1
lovel=85
pitch_keycenter=F2
sample=Horn_muted_staccato_FF_F2_RR2.opus
</region>

<region>
hivel=127
key=g2
lovel=85
sample=Horn_muted_staccato_FF_G2_RR2.opus
</region>

<region>
hivel=127
key=g3
lovel=85
sample=Horn_muted_staccato_FF_G3_RR2.opus
</region>

<region>
hivel=127
key=g4
lovel=85
sample=Horn_muted_staccato_FF_G4_RR2.opus
</region>

<region>
hivel=84
key=a#2
lovel=43
sample=Horn_muted_staccato_MF_A#2_RR2.opus
</region>

<region>
hikey=a2
hivel=84
lokey=g#2
lovel=43
pitch_keycenter=A2
sample=Horn_muted_staccato_MF_A2_RR2.opus
</region>

<region>
hikey=a3
hivel=84
lokey=g#3
lovel=43
pitch_keycenter=a3
sample=Horn_muted_staccato_MF_A3_RR2.opus
</region>

<region>
hikey=a4
hivel=84
lokey=g#4
lovel=43
pitch_keycenter=a4
sample=Horn_muted_staccato_MF_A4_RR2.opus
</region>

<region>
hikey=b3
hivel=84
lokey=a#3
lovel=43
pitch_keycenter=B3
sample=Horn_muted_staccato_MF_B3_RR2.opus
</region>

<region>
hikey=b4
hivel=84
lokey=a#4
lovel=43
pitch_keycenter=B4
sample=Horn_muted_staccato_MF_B4_RR2.opus
</region>

<region>
hikey=c3
hivel=84
lokey=b2
lovel=43
pitch_keycenter=c3
sample=Horn_muted_staccato_MF_C3_RR2.opus
</region>

<region>
hivel=84
key=c4
lovel=43
sample=Horn_muted_staccato_MF_C4_RR2.opus
</region>

<region>
hivel=84
key=c5
lovel=43
sample=Horn_muted_staccato_MF_C5_RR2.opus
</region>

<region>
hikey=d3
hivel=84
lokey=c#3
lovel=43
pitch_keycenter=d3
sample=Horn_muted_staccato_MF_D3_RR2.opus
</region>

<region>
hikey=d4
hivel=84
lokey=c#4
lovel=43
pitch_keycenter=d4
sample=Horn_muted_staccato_MF_D4_RR2.opus
</region>

<region>
hikey=d5
hivel=84
lokey=c#5
lovel=43
pitch_keycenter=d5
sample=Horn_muted_staccato_MF_D5_RR2.opus
</region>

<region>
hikey=e3
hivel=84
lokey=d#3
lovel=43
pitch_keycenter=e3
sample=Horn_muted_staccato_MF_E3_RR2.opus
</region>

<region>
hikey=e4
hivel=84
lokey=d#4
lovel=43
pitch_keycenter=e4
sample=Horn_muted_staccato_MF_E4_RR2.opus
</region>

<region>
hikey=A#5
hivel=84
lokey=d#5
lovel=43
pitch_keycenter=E5
sample=Horn_muted_staccato_MF_E5_RR2.opus
</region>

<region>
hivel=84
key=F#2
lovel=43
sample=Horn_muted_staccato_MF_F#2_RR2.opus
</region>

<region>
hikey=f#3
hivel=84
lokey=f3
lovel=43
pitch_keycenter=F#3
sample=Horn_muted_staccato_MF_F#3_RR2.opus
</region>

<region>
hikey=f#4
hivel=84
lokey=f4
lovel=43
pitch_keycenter=F#4
sample=Horn_muted_staccato_MF_F#4_RR2.opus
</region>

<region>
hikey=F2
hivel=84
lokey=F1
lovel=43
pitch_keycenter=F2
sample=Horn_muted_staccato_MF_F2_RR2.opus
</region>

<region>
hivel=84
key=g2
lovel=43
sample=Horn_muted_staccato_MF_G2_RR2.opus
</region>

<region>
hivel=84
key=g3
lovel=43
sample=Horn_muted_staccato_MF_G3_RR2.opus
</region>

<region>
hivel=84
key=g4
lovel=43
sample=Horn_muted_staccato_MF_G4_RR2.opus
</region>

<region>
hivel=42
key=a#2
lovel=0
sample=Horn_muted_staccato_PP_A#2_RR2.opus
</region>

<region>
hikey=a2
hivel=42
lokey=g#2
lovel=0
pitch_keycenter=A2
sample=Horn_muted_staccato_PP_A2_RR2.opus
</region>

<region>
hikey=a3
hivel=42
lokey=g#3
lovel=0
pitch_keycenter=a3
sample=Horn_muted_staccato_PP_A3_RR2.opus
</region>

<region>
hikey=a4
hivel=42
lokey=g#4
lovel=0
pitch_keycenter=a4
sample=Horn_muted_staccato_PP_A4_RR2.opus
</region>

<region>
hikey=b3
hivel=42
lokey=a#3
lovel=0
pitch_keycenter=B3
sample=Horn_muted_staccato_PP_B3_RR2.opus
</region>

<region>
hikey=b4
hivel=42
lokey=a#4
lovel=0
pitch_keycenter=B4
sample=Horn_muted_staccato_PP_B4_RR2.opus
</region>

<region>
hikey=c3
hivel=42
lokey=b2
lovel=0
pitch_keycenter=c3
sample=Horn_muted_staccato_PP_C3_RR2.opus
</region>

<region>
hivel=42
key=c4
lovel=0
sample=Horn_muted_staccato_PP_C4_RR2.opus
</region>

<region>
hivel=42
key=c5
lovel=0
sample=Horn_muted_staccato_PP_C5_RR2.opus
</region>

<region>
hikey=d3
hivel=42
lokey=c#3
lovel=0
pitch_keycenter=d3
sample=Horn_muted_staccato_PP_D3_RR2.opus
</region>

<region>
hikey=d4
hivel=42
lokey=c#4
lovel=0
pitch_keycenter=d4
sample=Horn_muted_staccato_PP_D4_RR2.opus
</region>

<region>
hikey=d5
hivel=42
lokey=c#5
lovel=0
pitch_keycenter=d5
sample=Horn_muted_staccato_PP_D5_RR2.opus
</region>

<region>
hikey=e3
hivel=42
lokey=d#3
lovel=0
pitch_keycenter=e3
sample=Horn_muted_staccato_PP_E3_RR2.opus
</region>

<region>
hikey=e4
hivel=42
lokey=d#4
lovel=0
pitch_keycenter=e4
sample=Horn_muted_staccato_PP_E4_RR2.opus
</region>

<region>
hikey=A#5
hivel=42
lokey=d#5
lovel=0
pitch_keycenter=E5
sample=Horn_muted_staccato_PP_E5_RR2.opus
</region>

<region>
hivel=42
key=F#2
lovel=0
sample=Horn_muted_staccato_PP_F#2_RR2.opus
</region>

<region>
hikey=f#3
hivel=42
lokey=f3
lovel=0
pitch_keycenter=F#3
sample=Horn_muted_staccato_PP_F#3_RR2.opus
</region>

<region>
hikey=f#4
hivel=42
lokey=f4
lovel=0
pitch_keycenter=F#4
sample=Horn_muted_staccato_PP_F#4_RR2.opus
</region>

<region>
hikey=F2
hivel=42
lokey=F1
lovel=0
pitch_keycenter=F2
sample=Horn_muted_staccato_PP_F2_RR2.opus
</region>

<region>
hivel=42
key=g2
lovel=0
sample=Horn_muted_staccato_PP_G2_RR2.opus
</region>

<region>
hivel=42
key=g3
lovel=0
sample=Horn_muted_staccato_PP_G3_RR2.opus
</region>

<region>
hivel=42
key=g4
lovel=0
sample=Horn_muted_staccato_PP_G4_RR2.opus
</region>
</group>